<?xml version="1.0" encoding="UTF-8"?>
<svg width="135px" height="28px" viewBox="0 0 135 28" version="1.1" xmlns="http://www.w3.org/2000/svg" xmlns:xlink="http://www.w3.org/1999/xlink">
    <title>logo/am备份 2</title>
    <g id="ing-..." stroke="none" stroke-width="1" fill="none" fill-rule="evenodd">
        <g id="交易-报价--Pricing" transform="translate(-870.000000, -4058.000000)" fill="#2A3546">
            <g id="logo/am备份-2" transform="translate(866.000000, 4049.000000)">
                <path d="M75.1684848,32.7205263 C75.5684848,32.7205263 75.8884848,32.8270526 76.1018182,33.0401053 C76.3418182,33.2531579 76.4484848,33.5194737 76.4484848,33.8656842 L76.4484848,33.8923158 L75.9951515,33.8923158 C75.9951515,33.6526316 75.9151515,33.4662105 75.7818182,33.3064211 C75.6484848,33.1732632 75.4351515,33.0933684 75.1684848,33.0933684 C74.9018182,33.0933684 74.6884848,33.1998947 74.5284848,33.4129474 C74.3684848,33.626 74.2884848,33.8923158 74.2884848,34.2118947 L74.2884848,34.8510526 C74.2884848,35.1706316 74.3684848,35.4369474 74.5284848,35.65 C74.6884848,35.8630526 74.9018182,35.9695789 75.1684848,35.9695789 C75.4351515,35.9695789 75.6484848,35.8896842 75.7818182,35.7565263 C75.9151515,35.6233684 75.9951515,35.4103158 75.9951515,35.1706316 L76.4484848,35.144 C76.4484848,35.4902105 76.3418182,35.7565263 76.1018182,35.9962105 C75.8618182,36.2092632 75.5418182,36.3157895 75.1684848,36.3157895 C74.7684848,36.3157895 74.4484848,36.1826316 74.2084848,35.8896842 C73.9684848,35.5967368 73.8351515,35.2505263 73.8351515,34.8244211 L73.8351515,34.2118947 C73.8351515,33.7857895 73.9684848,33.4129474 74.2084848,33.1466316 C74.4484848,32.8803158 74.7684848,32.7205263 75.1684848,32.7205263 Z M79.3284848,32.7205263 C79.7551515,32.7205263 80.1018182,32.8536842 80.3684848,33.1466316 C80.6351515,33.4395789 80.7684848,33.7857895 80.7684848,34.2118947 L80.7684848,34.8244211 C80.7684848,35.2505263 80.6351515,35.5967368 80.3684848,35.8896842 C80.1018182,36.1826316 79.7551515,36.3157895 79.3284848,36.3157895 C78.9284848,36.3157895 78.5818182,36.1826316 78.3418182,35.8896842 C78.0751515,35.5967368 77.9684848,35.2505263 77.9684848,34.8244211 L77.9684848,34.2118947 C77.9684848,33.7857895 78.1018182,33.4395789 78.3418182,33.1466316 C78.6084848,32.8536842 78.9284848,32.7205263 79.3284848,32.7205263 Z M53.7284848,32.7205263 C54.1284848,32.7205263 54.4484848,32.8270526 54.6618182,33.0401053 C54.9018182,33.2531579 55.0084848,33.5194737 55.0084848,33.8656842 L55.0084848,33.8923158 L54.5551515,33.8923158 C54.5551515,33.6526316 54.4751515,33.4662105 54.3418182,33.3064211 C54.2084848,33.1732632 53.9951515,33.0933684 53.7284848,33.0933684 C53.4618182,33.0933684 53.2484848,33.1998947 53.0884848,33.4129474 C52.9284848,33.626 52.8484848,33.8923158 52.8484848,34.2118947 L52.8484848,34.8510526 C52.8484848,35.1706316 52.9284848,35.4369474 53.0884848,35.65 C53.2484848,35.8630526 53.4618182,35.9695789 53.7284848,35.9695789 C53.9951515,35.9695789 54.2084848,35.8896842 54.3418182,35.7565263 C54.4751515,35.6233684 54.5551515,35.4103158 54.5551515,35.1706316 L55.0084848,35.144 C55.0084848,35.4902105 54.9018182,35.7565263 54.6618182,35.9962105 C54.4218182,36.2092632 54.1018182,36.3157895 53.7284848,36.3157895 C53.3284848,36.3157895 53.0084848,36.1826316 52.7684848,35.8896842 C52.5284848,35.5967368 52.3951515,35.2505263 52.3951515,34.8244211 L52.3951515,34.2118947 C52.3951515,33.7857895 52.5284848,33.4129474 52.7684848,33.1466316 C53.0084848,32.8536842 53.3284848,32.7205263 53.7284848,32.7205263 Z M48.6084848,32.7737895 L48.6084848,35.0907368 C48.6084848,35.3570526 48.6884848,35.5701053 48.8484848,35.7298947 C49.0084848,35.8896842 49.1951515,35.9695789 49.4351515,35.9695789 C49.7018182,35.9695789 49.8884848,35.8896842 50.0751515,35.7298947 C50.2351515,35.5701053 50.3151515,35.3570526 50.3151515,35.0907368 L50.3151515,32.7737895 L50.7684848,32.7737895 L50.7684848,35.0907368 C50.7684848,35.4635789 50.6351515,35.7831579 50.3951515,35.9962105 C50.1551515,36.2092632 49.8084848,36.3157895 49.4351515,36.3157895 C49.0618182,36.3157895 48.7418182,36.2092632 48.5018182,35.9962105 C48.2618182,35.7831579 48.1284848,35.4902105 48.1284848,35.0907368 L48.1284848,32.7737895 L48.6084848,32.7737895 Z M16.5551515,18.8987368 L16.5551515,28.3529474 L29.3551515,28.3529474 C27.344596,32.8903026 22.8540288,36.0999165 17.6358638,36.2816841 L17.3018182,36.2891579 L17.1951515,36.2891579 C12.8362326,36.2891579 8.93171835,34.1713929 6.51323021,30.9170669 L6.31515152,30.6432632 L16.5551515,18.8987368 Z M61.8884848,32.7737895 C62.3418182,32.7737895 62.7151515,32.9069474 62.9818182,33.1998947 C63.2484848,33.4928421 63.4084848,33.8390526 63.4084848,34.2917895 L63.4084848,34.7711579 C63.4084848,35.2238947 63.2751515,35.5701053 62.9818182,35.8630526 C62.7151515,36.156 62.3418182,36.2891579 61.8884848,36.2891579 L60.7951515,36.2625263 L60.7951515,32.7737895 L61.8884848,32.7737895 Z M85.9151515,32.7471579 L85.9151515,36.2358947 L85.4351515,36.2358947 L85.4351515,33.6526316 L85.4084848,33.6526316 L84.3418182,36.2891579 L84.0484848,36.2891579 L82.9551515,33.5727368 L82.9284848,33.5727368 L82.9284848,36.2891579 L82.4484848,36.2891579 L82.4484848,32.7737895 L83.0618182,32.7737895 L84.1818182,35.5967368 L85.3284848,32.7471579 L85.9151515,32.7471579 Z M58.0218182,32.7737895 L59.2484848,36.2625263 L58.7684848,36.2625263 L58.4751515,35.3570526 L57.1684848,35.3570526 L56.8484848,36.2625263 L56.3684848,36.2625263 L57.6218182,32.7737895 L58.0218182,32.7737895 Z M41.1951515,32.7737895 L41.1951515,35.8896842 L42.9018182,35.8896842 L42.9018182,36.2625263 L40.7151515,36.2625263 L40.7151515,32.7737895 L41.1951515,32.7737895 Z M96.1551515,32.7737895 L97.8351515,35.4369474 L97.8618182,35.4369474 L97.8618182,32.7737895 L98.3418182,32.7737895 L98.3418182,36.2625263 L97.8618182,36.2625263 L96.1818182,33.5993684 L96.1551515,33.5993684 L96.1551515,36.2625263 L95.6751515,36.2625263 L95.6751515,32.7737895 L96.1551515,32.7737895 Z M68.9284848,32.7737895 L70.1551515,36.2625263 L69.6751515,36.2625263 L69.3818182,35.3570526 L68.0751515,35.3570526 L67.7551515,36.2625263 L67.2751515,36.2625263 L68.5284848,32.7737895 L68.9284848,32.7737895 Z M92.9018182,32.7737895 L94.1284848,36.2625263 L93.6484848,36.2625263 L93.3818182,35.3570526 L92.0484848,35.3570526 L91.7284848,36.2625263 L91.2484848,36.2625263 L92.5018182,32.7737895 L92.9018182,32.7737895 Z M46.5551515,32.7737895 L46.5551515,33.1466316 L44.9018182,33.1466316 L44.9018182,34.2917895 L46.3418182,34.2917895 L46.3418182,34.638 L44.9018182,34.638 L44.9018182,35.8896842 L46.5818182,35.8896842 L46.5818182,36.2625263 L44.4218182,36.2625263 L44.4218182,32.7737895 L46.5551515,32.7737895 Z M65.6484848,32.7737895 L65.6484848,36.2625263 L65.1684848,36.2625263 L65.1684848,32.7737895 L65.6484848,32.7737895 Z M35.7018182,32.7737895 L36.9284848,36.2625263 L36.4484848,36.2625263 L36.1551515,35.3570526 L34.8484848,35.3570526 L34.5284848,36.2625263 L34.0484848,36.2625263 L35.3018182,32.7737895 L35.7018182,32.7737895 Z M89.0884848,32.7737895 C89.4618182,32.7737895 89.7551515,32.8803158 89.9684848,33.0667368 C90.1818182,33.2531579 90.2884848,33.5194737 90.2884848,33.8390526 C90.2884848,34.1586316 90.1818182,34.3983158 89.9684848,34.6113684 C89.7551515,34.7977895 89.4618182,34.9043158 89.0884848,34.9043158 L88.2351515,34.9043158 L88.2351515,36.2625263 L87.7551515,36.2625263 L87.7551515,32.7737895 L89.0884848,32.7737895 Z M100.315152,32.7205263 L101.248485,34.5314737 L102.155152,32.7471579 L102.688485,32.7471579 L101.461818,35.0108421 L101.461818,36.2358947 L100.981818,36.2358947 L100.981818,34.9575789 L99.7818182,32.7205263 L100.315152,32.7205263 Z M79.3284848,33.0933684 C79.0618182,33.0933684 78.8218182,33.1998947 78.6618182,33.4129474 C78.5018182,33.626 78.4218182,33.8923158 78.4218182,34.2118947 L78.4218182,34.8510526 C78.4218182,35.1706316 78.5018182,35.4369474 78.6618182,35.65 C78.8218182,35.8630526 79.0351515,35.9695789 79.3284848,35.9695789 C79.6218182,35.9695789 79.8618182,35.8630526 80.0218182,35.65 C80.1818182,35.4369474 80.2884848,35.1706316 80.2884848,34.8510526 L80.2884848,34.2118947 C80.2884848,33.8923158 80.2084848,33.626 80.0218182,33.4129474 C79.8618182,33.1998947 79.6218182,33.0933684 79.3284848,33.0933684 Z M61.8884848,33.1466316 L61.2484848,33.1466316 L61.2484848,35.9163158 L61.8884848,35.9163158 C62.2084848,35.9163158 62.4751515,35.8097895 62.6618182,35.5967368 C62.8484848,35.3836842 62.9551515,35.1173684 62.9551515,34.7711579 L62.9551515,34.2917895 C62.9551515,33.9722105 62.8484848,33.6792632 62.6618182,33.4662105 C62.4751515,33.2531579 62.2084848,33.1466316 61.8884848,33.1466316 Z M35.5151515,33.4662105 L35.4884848,33.4662105 L34.9818182,34.9575789 L36.0218182,34.9575789 L35.5151515,33.4662105 Z M57.8084848,33.4662105 L57.7818182,33.4662105 L57.2751515,34.9575789 L58.3151515,34.9575789 L57.8084848,33.4662105 Z M68.7418182,33.4662105 L68.7151515,33.4662105 L68.2084848,34.9575789 L69.2484848,34.9575789 L68.7418182,33.4662105 Z M92.7151515,33.4662105 L92.6884848,33.4662105 L92.1818182,34.9575789 L93.2218182,34.9575789 L92.7151515,33.4662105 Z M89.0884848,33.1466316 L88.2351515,33.1466316 L88.2351515,34.4782105 L89.0884848,34.4782105 C89.3284848,34.4782105 89.5151515,34.4249474 89.6218182,34.2917895 C89.7284848,34.1586316 89.8084848,33.9988421 89.8084848,33.8124211 C89.8084848,33.626 89.7551515,33.4662105 89.6218182,33.3330526 C89.5151515,33.1998947 89.3284848,33.1466316 89.0884848,33.1466316 Z M107.035152,17.4073684 C107.652294,17.4301955 108.19107,17.4530226 108.634685,17.4590787 L108.848485,17.4606316 L112.475152,17.4606316 L112.421818,17.6204211 C112.288485,18.1530526 112.048485,18.7922105 111.701818,19.5645263 C111.412929,20.1859298 111.105522,20.770345 110.795028,21.2869483 L110.608485,21.5885263 L110.608485,22.0945263 C110.728485,21.9746842 110.863485,21.8548421 111.013485,21.7125296 L111.168485,21.5618947 L111.275152,21.4553684 L111.355152,21.5885263 C111.728485,22.1477895 112.181818,22.8135789 112.715152,23.506 C112.715152,22.8768289 112.694735,22.3903865 112.671766,22.0466727 L112.661818,21.9081053 L112.661818,21.7749474 L121.701818,21.7749474 L121.728485,21.8548421 C121.703596,22.4513895 121.678707,23.5351172 121.675499,25.0843728 L121.675152,25.4234737 L121.675278,26.06896 C121.676036,27.3085476 121.681346,28.2390668 121.718513,28.8468823 L121.728485,28.9921053 L121.728485,29.1252632 L120.155152,29.1252632 L120.155152,28.3529474 L114.181818,28.3529474 L114.181818,29.1252632 L112.661818,29.1252632 L112.661818,28.9921053 C112.686818,28.4677961 112.711818,27.4051336 112.714846,25.8260618 L112.715152,23.7456842 C112.480485,23.8948211 112.262885,24.0780463 112.062352,24.3089954 L111.915152,24.4913684 L111.808485,24.6511579 L111.701818,24.4913684 C111.381818,24.0226526 111.078885,23.5880253 110.793018,23.2011217 L110.581818,22.9201053 L110.582065,27.2521754 C110.583053,27.832152 110.587991,28.3647836 110.612682,28.8500702 L110.635152,29.2051579 L110.635152,29.3383158 L109.061818,29.3383158 L109.061818,29.2051579 C109.083152,28.6512211 109.104485,28.0461516 109.112165,27.4172202 L109.115152,26.9414737 L109.115152,23.3728421 C108.709818,23.8841684 108.287418,24.3443621 107.847952,24.7806939 L107.515152,25.1038947 L107.408485,25.2104211 L107.328485,25.0772632 C107.157818,24.8216 106.953018,24.5659368 106.700432,24.3239091 L106.501818,24.1451579 L106.395152,24.0386316 L106.528485,23.9321053 C107.488485,23.1597895 108.288485,22.3342105 108.981818,21.4553684 C109.541818,20.7562895 110.020152,19.9756513 110.381089,19.1491361 L110.528485,18.7922105 L108.724266,18.7923146 C108.353954,18.7929387 107.891766,18.797308 107.326454,18.8278927 L107.035152,18.8454737 L106.901818,18.8454737 L106.901818,17.4073684 L107.035152,17.4073684 Z M127.248485,22.3608421 L127.381818,22.5206316 C127.541818,22.7489023 127.799777,22.996739 128.155696,23.2976836 L128.341818,23.4527368 L128.421818,23.5326316 L128.368485,23.6391579 C127.248485,25.4234737 126.501818,26.5952632 126.101818,27.2077895 C125.821818,27.6472105 125.526818,28.1016118 125.205568,28.5597582 L124.875152,29.0187368 L124.768485,29.1518947 L124.661818,29.0187368 C124.341818,28.6535038 124.021818,28.386101 123.701818,28.2165285 L123.541818,28.1398947 L123.381818,28.06 L123.488485,27.9268421 C124.101818,27.2344211 124.688485,26.4887368 125.275152,25.7164211 C125.784242,25.0143158 126.359449,24.0701053 126.980736,22.9037982 L127.168485,22.5472632 L127.248485,22.3608421 Z M77.9951515,14.2648421 C79.5122944,14.2648421 80.7318862,15.4782434 80.8170648,16.9737694 L80.8218182,17.1410526 L80.8218182,19.0851579 L77.3018182,19.0851579 C77.2018182,18.3860789 76.6565057,17.8508466 75.9954705,17.7866734 L75.8618182,17.7802105 L71.0884848,17.7802105 C70.3355437,17.7802105 69.7243326,18.3935662 69.6550307,19.1540162 L69.6484848,19.2982105 L69.6484848,23.9853684 C69.6484848,24.7623839 70.2154053,25.4214464 70.949067,25.4962945 L71.0884848,25.5033684 L75.8618182,25.5033684 C76.6147594,25.5033684 77.2259704,24.8900127 77.2952723,24.1295627 L77.3018182,23.9853684 L77.3018182,23.8522105 L80.8218182,23.8522105 L80.8218182,25.9827368 C80.8218182,27.4978835 79.6316141,28.7653972 78.1358889,28.8540013 L77.9684848,28.8589474 L68.5818182,28.8589474 C67.0646753,28.8589474 65.8202876,27.6455461 65.7333379,26.1500201 L65.7284848,25.9827368 L65.7284848,17.1410526 C65.7284848,15.6002256 66.9434848,14.356558 68.4170709,14.2696899 L68.5818182,14.2648421 L77.9951515,14.2648421 Z M99.6218182,14.2382105 C101.221818,14.2382105 102.547104,15.934207 102.558437,18.0469617 L102.555152,18.2595789 L102.555152,28.8589474 L98.4751515,28.8589474 L98.4751515,19.3514737 C98.4751515,18.4936565 97.7332125,17.7553495 96.793507,17.6120771 L96.6351515,17.5937895 L95.3551515,17.5937895 C95.2351515,17.5937895 95.1001515,17.6087697 94.9614015,17.6387303 L94.8218182,17.6736842 L94.8218182,28.8589474 L90.7418182,28.8589474 L90.7418182,17.6470526 C90.6351515,17.6292982 90.516633,17.6115439 90.3941639,17.6016803 L90.2084848,17.5937895 L89.0884848,17.5937895 C88.0218182,17.5937895 87.1244637,18.3184583 87.0414201,19.2156673 L87.0351515,19.3514737 L87.0351515,28.8589474 L82.8751515,28.8589474 L82.8751515,18.2329474 C82.8751515,16.1219509 84.145996,14.3593546 85.7241688,14.2441938 L85.8884848,14.2382105 L99.6218182,14.2382105 Z M47.8618182,14.2648421 L47.8618182,17.6470526 L42.2351515,17.6470526 C40.8484848,17.6470526 39.4084848,17.5138947 38.6618182,17.9133684 C38.1391515,18.2116421 38.1275367,18.8811008 38.149992,19.6402626 L38.1551515,19.8042105 L47.8351515,19.7509474 L47.8351515,23.2663158 L38.2618182,23.2663158 L38.2084848,28.8589474 L33.9418182,28.8589474 L33.9418182,17.8601053 C33.9418182,16.7149474 34.2884848,15.9426316 34.7684848,15.3567368 C35.2484848,14.7708421 35.8618182,14.2914737 36.9818182,14.2914737 C38.1916578,14.2795108 39.9664777,14.2729217 41.7987021,14.2692923 L43.1757029,14.2670876 C43.4805701,14.2667042 43.783507,14.2663863 44.0821638,14.2661227 L45.1469872,14.2653823 C45.3198998,14.2652923 45.4901828,14.2652173 45.6573103,14.2651547 L47.8618182,14.2648421 Z M53.9418182,14.2382105 L57.4351515,19.2715789 L60.8751515,14.2648421 L65.0618182,14.2648421 L60.1284848,21.4021053 L65.3018182,28.8589474 L60.9818182,28.8323158 L57.3818182,23.5326316 L53.7018182,28.8323158 L49.5684848,28.7790526 L54.5551515,21.4021053 L49.5684848,14.2382105 L53.9418182,14.2382105 Z M137.728485,15.1703158 L137.728485,16.6883158 L137.595152,16.6883158 C136.784485,16.6670105 136.025018,16.6457053 135.316752,16.6380354 L134.795152,16.6350526 L130.395152,16.6350526 L130.395152,27.1278947 L135.745338,27.1274686 C136.301498,27.1261903 136.874938,27.1210771 137.459898,27.100624 L138.048485,27.0746316 L138.181818,27.048 L138.181818,28.6192632 L138.048485,28.6192632 C137.202771,28.5964361 136.455015,28.573609 135.788427,28.5675529 L135.461818,28.566 L128.821818,28.566 L128.821818,28.4328421 C128.846061,27.2465263 128.870303,26.3023158 128.87451,25.6002105 L128.874725,17.4915242 C128.87336,16.8813415 128.867625,16.3038836 128.843541,15.7591507 L128.821818,15.3567368 L128.821818,15.2235789 L134.795152,15.2235789 C135.499152,15.2235789 136.237285,15.2235789 137.009552,15.1963082 L137.595152,15.1703158 L137.728485,15.1703158 Z M120.128485,25.6631579 L117.915152,25.6631579 L117.915152,27.1545263 L120.128485,27.1545263 L120.128485,25.6631579 Z M116.421818,25.6631579 L114.155152,25.6631579 L114.155152,27.1545263 L116.421818,27.1545263 L116.421818,25.6631579 Z M17.3018182,9.68421053 C21.7418182,9.71014127 25.6761857,11.9579277 28.0710353,15.3458769 L28.2618182,15.6230526 L17.9418182,26.9681053 L17.9418182,17.9932632 L4.84848485,17.9932632 C6.78235152,13.2171558 11.4309488,9.82220472 16.8616959,9.68831712 L17.1951515,9.68421053 L17.3018182,9.68421053 Z M116.421818,23 L114.155152,23 L114.155152,24.4114737 L116.421818,24.4114737 L116.421818,23 Z M120.128485,23 L117.915152,23 L117.915152,24.4114737 L120.128485,24.4114737 L120.128485,23 Z M124.155152,18.4992632 L124.261818,18.5525263 C125.084675,18.9634135 125.966308,19.452565 126.87313,20.0199807 L127.328485,20.3102105 L127.461818,20.3901053 L127.355152,20.4966316 C127.191818,20.6830526 126.967235,20.9918125 126.717131,21.4407523 L126.608485,21.6417895 L126.528485,21.7749474 L126.395152,21.6684211 C125.640866,21.0977444 124.788621,20.5661998 123.905589,20.1241 L123.461818,19.9107368 L123.301818,19.8308421 L123.408485,19.6976842 C123.586263,19.4757544 123.782559,19.179848 123.981942,18.8253767 L124.101818,18.6057895 L124.155152,18.4992632 Z M120.715152,17.2742105 L120.715152,17.4073684 C120.688485,17.9666316 120.661818,18.5258947 120.661818,19.0851579 C120.661818,19.4899579 120.661818,19.9458905 120.689125,20.4393204 L120.715152,20.8162105 L120.715152,20.9493684 L113.488485,20.9493684 L113.488485,20.8162105 C113.515152,20.1504211 113.541818,19.5645263 113.541818,19.0052632 C113.541818,18.6057895 113.541818,18.2063158 113.519318,17.8068421 L113.488485,17.4073684 L113.488485,17.2742105 L120.715152,17.2742105 Z M119.221818,18.5258947 L114.928485,18.5258947 L114.928485,19.7509474 L119.221818,19.7509474 L119.221818,18.5258947 Z M125.035152,14.2648421 L125.141818,14.3447368 C125.873247,14.8241053 126.683043,15.401304 127.520827,16.0427912 L127.941818,16.3687368 L128.048485,16.4486316 L127.941818,16.5551579 C127.608485,16.8658596 127.349226,17.1580673 127.148608,17.4163689 L127.035152,17.5671579 L126.955152,17.7003158 L126.848485,17.5937895 C126.117056,16.8861504 125.366036,16.2763416 124.595424,15.7643631 L124.208485,15.5165263 L124.075152,15.4366316 L124.181818,15.3301053 C124.478961,15.0105263 124.717328,14.7105134 124.880127,14.4803793 L124.955152,14.3713684 L125.035152,14.2648421 Z M109.435152,13.8653684 L109.541818,13.9718947 C110.075152,14.5045263 110.645522,15.1111345 111.222065,15.7763075 L111.568485,16.1823158 L111.675152,16.2888421 L111.541818,16.3687368 C111.208485,16.5684737 110.930707,16.7867047 110.723917,16.9926062 L110.608485,17.1144211 L110.501818,17.2475789 L110.395152,17.1144211 C109.835152,16.3221316 109.295568,15.6725707 108.776402,15.1657385 L108.555152,14.9572632 L108.421818,14.8507368 L108.555152,14.7442105 C108.866263,14.5444737 109.1033,14.3262427 109.266263,14.1203411 L109.355152,13.9985263 L109.435152,13.8653684 Z M112.715152,14.8773684 C113.269818,14.8986737 113.858618,14.9199789 114.495205,14.9276488 L114.981818,14.9306316 L119.275152,14.9306316 C119.915152,14.9306316 120.503952,14.9306316 121.068858,14.9033608 L121.488485,14.8773684 L121.621818,14.8773684 L121.621818,16.3154737 L121.488485,16.3154737 C120.948485,16.2955 120.408485,16.2755263 119.845985,16.2667878 L119.275152,16.2622105 L115.061818,16.2622105 C114.035152,16.2622105 113.299781,16.2845885 112.835167,16.3088312 L112.715152,16.3154737 L112.581818,16.3421053 L112.581818,14.8773684 L112.715152,14.8773684 Z" id="Combined-Shape"></path>
            </g>
        </g>
    </g>
</svg>