<?xml version="1.0" encoding="UTF-8"?>
<svg width="159px" height="24px" viewBox="0 0 159 24" version="1.1" xmlns="http://www.w3.org/2000/svg" xmlns:xlink="http://www.w3.org/1999/xlink">
    <title>logo/am备份 4</title>
    <g id="ing-..." stroke="none" stroke-width="1" fill="none" fill-rule="evenodd">
        <g id="交易-报价--Pricing" transform="translate(-867.000000, -4237.000000)">
            <g id="Group" transform="translate(866.000000, 4225.000000)">
                <g id="Group-20" transform="translate(1.212121, 12.105263)">
                    <path d="M13.6454545,14.7684211 C14.1425108,14.7684211 14.5454545,15.1713648 14.5454545,15.6684211 L14.5454545,16.0473684 C14.5454545,16.5444247 14.1425108,16.9473684 13.6454545,16.9473684 L0.9,16.9473684 C0.402943725,16.9473684 -3.31081649e-13,16.5444247 -3.3158661e-13,16.0473684 L-3.3158661e-13,15.6684211 C-3.3153646e-13,15.1713648 0.402943725,14.7684211 0.9,14.7684211 L13.6454545,14.7684211 Z M13.6454545,11.5 C14.1425108,11.5 14.5454545,11.9029437 14.5454545,12.4 L14.5454545,12.7789474 C14.5454545,13.2760036 14.1425108,13.6789474 13.6454545,13.6789474 L4.53636364,13.6789474 C4.03930736,13.6789474 3.63636364,13.2760036 3.63636364,12.7789474 L3.63636364,12.4 C3.63636364,11.9029437 4.03930736,11.5 4.53636364,11.5 L13.6454545,11.5 Z M13.6454545,8.59473684 C14.1425108,8.59473684 14.5454545,8.99768057 14.5454545,9.49473684 L14.5454545,9.87368421 C14.5454545,10.3707405 14.1425108,10.7736842 13.6454545,10.7736842 L8.53636364,10.7736842 C8.03930736,10.7736842 7.63636364,10.3707405 7.63636364,9.87368421 L7.63636364,9.49473684 C7.63636364,8.99768057 8.03930736,8.59473684 8.53636364,8.59473684 L13.6454545,8.59473684 Z M13.6454545,5.68947368 C14.1425108,5.68947368 14.5454545,6.09241741 14.5454545,6.58947368 L14.5454545,6.96842105 C14.5454545,7.46547733 14.1425108,7.86842105 13.6454545,7.86842105 L12.1727273,7.86842105 C11.675671,7.86842105 11.2727273,7.46547733 11.2727273,6.96842105 L11.2727273,6.58947368 C11.2727273,6.09241741 11.675671,5.68947368 12.1727273,5.68947368 L13.6454545,5.68947368 Z" id="Combined-Shape" fill="#77BDE0"></path>
                    <path d="M75.1515152,0 L75.1515152,23 L73.9393939,23 L73.9393939,0 L75.1515152,0 Z M41.4569512,6.05263158 L46.7038402,16.5787457 L43.2256129,16.5787457 L42.3013026,14.8985185 L35.8571342,14.8985185 L34.9849217,16.5787457 L31.5151515,16.5787457 L36.932007,6.05263158 L41.4569512,6.05263158 Z M59.0032792,6.05263158 L64.5682765,13.9502754 L64.5682765,6.05263158 L67.851963,6.05263158 L67.851963,16.5046694 L62.5401367,16.5046694 L56.8810316,8.5092778 L56.8810316,16.5046694 L53.7442153,16.5046694 L53.7442153,6.05263158 L59.0032792,6.05263158 Z M51.5151515,6.05263158 L51.5151515,16.4631579 L48.4848485,16.4631579 L48.4848485,6.05263158 L51.5151515,6.05263158 Z M29.4850842,6.05263158 C30.5896537,6.05263158 31.4850842,6.94806208 31.4850842,8.05263158 L31.4850842,9.80376455 L28.4603565,9.80376455 L28.4603565,9.59935591 C28.4603565,9.04707116 28.0126413,8.59935591 27.4603565,8.59935591 L22.1459591,8.59935591 C21.5936743,8.59935591 21.1459591,9.04707116 21.1459591,9.59935591 L21.1459591,13.0496019 C21.1459591,13.6018867 21.5936743,14.0496019 22.1459591,14.0496019 L27.4603565,14.0496019 C28.0126413,14.0496019 28.4603565,13.6018867 28.4603565,13.0496019 L28.4603565,13.0001979 L24.4489146,13.0001979 L24.4489146,10.8698679 L31.4850842,10.8698679 L31.4850842,14.4104026 C31.4850842,15.5149721 30.5896537,16.4104026 29.4850842,16.4104026 L20.1818182,16.4104026 C19.0772487,16.4104026 18.1818182,15.5149721 18.1818182,14.4104026 L18.1818182,8.05263158 C18.1818182,6.94806208 19.0772487,6.05263158 20.1818182,6.05263158 L29.4850842,6.05263158 Z M117.117844,6.05263158 C118.111957,6.05263158 118.917844,6.85851903 118.917844,7.85263158 L118.917844,10.612212 C118.917748,11.606287 118.111919,12.4121589 117.117844,12.4123081 L109.090573,12.4127368 L109.090909,16.2847301 L107.878788,16.2847301 L107.878788,6.05263158 L117.117844,6.05263158 Z M90.8626688,6.05263158 C91.8567813,6.05263158 92.6626688,6.85851903 92.6626688,7.85263158 L92.6626688,9.193527 L91.4505476,9.193527 L91.4504953,8.26305406 C91.4504081,7.71079124 91.002702,7.26311022 90.4504392,7.26305406 L83.4237725,7.26305406 C82.8714877,7.26305406 82.4237725,7.71076931 82.4237725,8.26305406 L82.4237725,14.0673172 C82.4237725,14.619602 82.8714877,15.0673172 83.4237725,15.0673172 L90.4504392,15.0673172 C91.0027068,15.0672735 91.450415,14.6195849 91.4504829,14.0673172 L91.4505476,12.5863437 L92.6626688,12.5863437 L92.6626688,14.4789887 C92.6626688,15.4731013 91.8567813,16.2789887 90.8626688,16.2789887 L83.0121212,16.2789887 C82.0180087,16.2789887 81.2121212,15.4731013 81.2121212,14.4789887 L81.2121212,7.85263158 C81.2121212,6.85851903 82.0180087,6.05263158 83.0121212,6.05263158 L90.8626688,6.05263158 Z M122.424242,6.05263158 L122.424242,16.1069517 L121.212121,16.1069517 L121.212121,6.05263158 L122.424242,6.05263158 Z M150.30303,6.05263158 L150.302612,14.844049 L158.0614,14.8450681 L158.0614,16.0555945 L149.090909,16.0555945 L149.090909,6.05263158 L150.30303,6.05263158 Z M135.357052,6.05263158 L135.357052,7.26315789 L130.413848,7.26263158 L130.414755,16.0377546 L129.202634,16.0377546 L129.201848,7.26263158 L124.484848,7.26315789 L124.484848,6.05263158 L135.357052,6.05263158 Z M100.65458,6.05263158 L106.140606,16.0140526 L104.757576,16.0140526 L103.641212,13.9888421 L95.7878788,13.9888421 L94.7066667,16.0140526 L93.3333333,16.0140526 L98.6608393,6.05263158 L100.65458,6.05263158 Z M141.866701,6.05263158 L147.352727,16.0140526 L145.969697,16.0140526 L144.853333,13.9888421 L137,13.9888421 L135.918788,16.0140526 L134.545455,16.0140526 L139.87296,6.05263158 L141.866701,6.05263158 Z M99.9369697,7.26280324 L99.3866667,7.26280324 L96.4351515,12.7783158 L102.974545,12.7783158 L99.9369697,7.26280324 Z M141.149091,7.26280324 L140.598788,7.26280324 L137.647273,12.7783158 L144.186667,12.7783158 L141.149091,7.26280324 Z M39.0363731,8.41697999 L37.006161,12.5372601 L41.2111805,12.5372601 L39.0363731,8.41697999 Z M116.705119,7.26315789 L109.090573,7.26315789 L109.090573,11.2022105 L116.705119,11.2022105 C117.257403,11.2022105 117.705119,10.7544953 117.705119,10.2022105 L117.705119,8.26315789 C117.705119,7.71087314 117.257403,7.26315789 116.705119,7.26315789 Z" id="Combined-Shape" fill="#2A5E80"></path>
                </g>
            </g>
        </g>
    </g>
</svg>