<?xml version="1.0" encoding="UTF-8"?>
<svg width="80px" height="34px" viewBox="0 0 80 34" version="1.1" xmlns="http://www.w3.org/2000/svg" xmlns:xlink="http://www.w3.org/1999/xlink">
    <title>logo/am备份</title>
    <g id="ing-..." stroke="none" stroke-width="1" fill="none" fill-rule="evenodd">
        <g id="交易-报价--Pricing" transform="translate(-870.000000, -4143.000000)">
            <g id="Group" transform="translate(866.000000, 4137.000000)">
                <g id="Group-14" transform="translate(4.848485, 6.052632)">
                    <rect id="Rectangle" fill="#AA0E12" x="0" y="0" width="78.7878788" height="33.8947368"></rect>
                    <path d="M42.4242424,3.63157895 C46.9227465,3.63157895 50.9009235,5.85643269 53.3156964,9.2644357 L50.0093855,13.1458571 C48.6142667,10.3749308 45.741577,8.47368421 42.4242424,8.47368421 C37.73819,8.47368421 33.9393939,12.2674819 33.9393939,16.9473684 C33.9393939,21.627255 37.73819,25.4210526 42.4242424,25.4210526 C45.8088211,25.4210526 48.7305458,23.4419464 50.0923949,20.5793119 L42.4242424,20.5789474 L45.7915572,17.089 L55.7551515,17.089 L55.7530819,17.2964933 C55.5677154,24.4892336 49.6711534,30.2631579 42.4242424,30.2631579 C35.0604458,30.2631579 29.0909091,24.3014759 29.0909091,16.9473684 C29.0909091,9.59326096 35.0604458,3.63157895 42.4242424,3.63157895 Z M27.2150655,4.84210526 L27.2150655,30.106867 C26.2497848,29.2929124 25.3665978,28.4079441 24.5655044,27.4519622 C23.7644111,26.4959803 23.2526773,25.7163248 23.030303,25.1129956 L23.030303,25.1129956 L23.030303,4.84210526 L27.2150655,4.84210526 Z" id="Combined-Shape" fill="#FEFFFF"></path>
                </g>
            </g>
        </g>
    </g>
</svg>