<?xml version="1.0" encoding="UTF-8"?>
<svg width="160px" height="41px" viewBox="0 0 160 41" version="1.1" xmlns="http://www.w3.org/2000/svg" xmlns:xlink="http://www.w3.org/1999/xlink">
    <title>logo/am备份 3</title>
    <g id="ing-..." stroke="none" stroke-width="1" fill="none" fill-rule="evenodd">
        <g id="交易-报价--Pricing" transform="translate(-866.000000, -3964.000000)">
            <g id="logo/am备份-3" transform="translate(866.000000, 3961.000000)">
                <path d="M57.3677514,32.7066306 L50.0841273,36.9784846 C48.8564652,37.6985005 47.3801413,37.8612262 46.0251337,37.4258739 C39.9083912,35.4606171 32.8786011,34.4779887 24.9357634,34.4779887 C16.0796012,34.4779887 7.7676801,37.5116416 2.20429735e-12,43.5789474 C4.08546167,39.0522419 7.35847228,36.018589 9.81903184,34.4779887 C16.7915951,30.1123423 23.7927405,29.0641352 27.8787879,28.2897489 C34.505751,27.0338091 44.3354055,28.506103 57.3677514,32.7066306 Z M13.3333333,24.2105263 L13.3333333,30.7019632 C12.4518164,31.1209533 11.6437356,31.5723336 10.9090909,32.0561042 C10.1744462,32.5398748 9.36636538,33.1169617 8.48484848,33.7873649 L8.48484848,24.2105263 L13.3333333,24.2105263 Z M20.6060606,19.3684211 L20.6060606,27.8421053 C19.601955,28.0573421 18.7214005,28.2978879 17.964397,28.5637428 C17.2073934,28.8295976 16.4717864,29.1566375 15.7575758,29.5448624 L15.7575758,19.3684211 L20.6060606,19.3684211 Z M27.8787879,13.3157895 L27.8787879,26.6294912 C27.0024138,26.5427612 26.194333,26.5427612 25.4545455,26.6294912 C24.7147579,26.7162212 23.9066771,26.905694 23.030303,27.1979097 L23.030303,13.3157895 L27.8787879,13.3157895 Z" id="Combined-Shape" fill="#000000"></path>
                <path d="M90.6737253,8.41858372 L90.9684718,8.42408635 C92.2326939,8.45916642 93.5687747,8.53355156 94.9854856,9.37037562 C95.9299596,9.92825833 96.5875366,10.763934 96.9582166,11.8774026 L96.9582166,20.2036909 C96.7420859,21.7958901 95.9320933,23.0902522 94.5282387,24.0867769 C93.1243841,25.0833017 91.4582815,25.5465935 89.5299308,25.4766522 C87.541293,25.4002045 86.0695543,24.9369128 85.1147148,24.0867769 C84.2235313,23.2933168 83.7264818,22.1128863 83.6235665,20.5454855 L83.6075459,20.2036909 C83.5249241,18.8385487 83.9227399,17.7017688 84.8009935,16.7933511 C85.6792471,15.8849334 86.9347186,15.3116428 88.5674082,15.0734793 L89.2891064,14.9948227 C90.5519044,14.8405919 91.4829665,14.6312124 92.082293,14.3666844 C92.7905878,14.0540604 93.1118056,13.6307531 93.0459463,13.0967623 C92.9617045,12.5876276 92.7040316,12.2086794 92.2729276,11.9599177 C91.8957115,11.7422512 91.4003882,11.6327272 90.7869574,11.6313456 L90.5168274,11.6373745 C89.9100609,11.6373525 89.3876801,11.7448669 88.9496849,11.9599177 C88.5116897,12.1749685 88.1600185,12.4966041 87.8946712,12.9248243 L83.9458605,12.9248243 C84.3108498,11.7595334 84.6685422,10.9512678 85.0189377,10.5000275 C86.1052923,9.10101685 87.2648137,8.70169809 88.2272703,8.56730637 L88.5254628,8.52954616 C89.0330556,8.47113472 89.8005852,8.41009753 90.6737253,8.41858372 Z M152.100474,8.4177896 C154.166365,8.48736087 155.753157,8.93827758 156.86085,9.77053974 C157.968543,10.6028019 158.754742,11.9348253 159.219447,13.7666099 L159.219447,13.7666099 L155.599112,13.7666099 C155.286185,12.8248622 154.616144,12.1983267 153.58899,11.8870034 C152.048258,11.4200184 150.964783,11.8870034 150.594778,12.2036451 C150.224772,12.5202869 149.775938,13.0968811 150.446437,13.7666099 C150.893435,14.2130957 151.846179,14.5943672 153.304667,14.9104242 C155.799931,15.3614705 157.524737,16.0085406 158.479085,16.8516344 C159.433433,17.6947282 159.845221,18.9351771 159.71445,20.5729811 C159.517598,22.0036176 158.814739,23.1531607 157.605872,24.0216104 C155.792572,25.3242849 154.577065,25.4098677 152.640687,25.4156653 C150.70431,25.4214628 149.226196,25.4214628 147.474163,24.0216104 C146.306141,23.0883755 145.662515,21.6258748 145.543285,19.6341084 L145.543285,19.6341084 L149.417359,19.6341084 C149.654137,20.3967169 150.04661,21.0159012 150.594778,21.4916613 C151.41703,22.2053013 152.069686,22.2858582 152.598139,22.2858582 C153.126593,22.2858582 154.040619,22.1455746 154.778914,21.6973894 C155.517208,21.2492041 155.599112,20.9187603 155.599112,20.5729811 C155.599112,20.2272019 155.42866,19.8520128 154.463319,19.3553318 C153.819759,19.0242112 152.781448,18.7010753 151.348387,18.3859243 C149.541727,18.0814455 148.1734,17.5104579 147.243403,16.6729614 C146.313407,15.835465 145.891216,14.794024 145.976831,13.5486384 C145.93778,12.0837119 146.501438,10.8623388 147.667806,9.88451911 C148.834175,8.90669944 150.311731,8.4177896 152.100474,8.4177896 Z M129.83652,8.4177896 C132.407066,8.4177896 134.397423,9.36587694 135.807594,11.2620516 C137.147255,13.0634176 137.640632,15.1832278 137.287725,17.6214824 L137.22497,18.0091163 L126.810419,18.0091163 C126.77626,19.0418327 127.033217,19.8974648 127.581289,20.5760126 C128.129361,21.2545605 128.909349,21.6827319 129.921253,21.8605269 C130.687333,21.9014462 131.38846,21.7545024 132.024633,21.4196956 C132.581285,21.1267396 132.993965,20.7395489 133.262673,20.2581235 L133.369018,20.0460289 L136.958227,20.0460289 C136.738767,21.4610957 135.968342,22.694304 134.646952,23.7456538 C133.722612,24.4810953 131.79979,25.2716792 129.921253,25.2708482 C127.771599,25.269593 125.651002,24.3578015 124.654865,23.2985592 C123.410439,21.9752982 122.73133,20.1448532 122.617537,17.8072241 C122.529214,14.8262577 123.094546,12.5430322 124.313531,10.9575475 C125.532517,9.37206288 127.373513,8.52547691 129.83652,8.4177896 Z M67.9400762,4.11647277 L72.1756972,19.7970617 L76.4209709,4.11647277 L82.6040566,4.11647277 L82.6040566,25.0081734 L78.6608639,25.0081734 L78.6608639,8.44639913 L74.4755633,25.0081734 L70.1062292,25.0081734 L65.9478295,8.44639913 L65.9478295,25.0081734 L61.958114,25.0081734 L61.958114,6.11647277 C61.958114,5.01190327 62.8535445,4.11647277 63.958114,4.11647277 L67.9400762,4.11647277 Z M106.955647,8.75054145 L106.955647,12.8860152 L105.222205,12.8860152 C103.565351,12.8860152 102.222205,14.229161 102.222205,15.8860152 L102.222205,25.0081734 L97.9723976,25.0081734 L97.9723976,14.7505415 C97.9723976,11.436833 100.658689,8.75054145 103.972398,8.75054145 L106.955647,8.75054145 Z M109.790951,4.11647277 C110.811044,4.11647277 111.647191,4.90300679 111.72451,5.90195181 L111.730345,6.05331488 L111.730057,14.7504728 L116.828963,8.75054145 L121.838233,8.75054145 L116.304371,15.2224278 L122.083626,25.0081734 L116.828963,25.0081734 L112.897599,17.7332114 L111.730057,19.0144728 L111.730345,25.0081734 L107.627057,25.0081734 L107.627057,4.11647277 L109.790951,4.11647277 Z M141.226277,3.89578965 C142.109933,3.89578965 142.826277,4.61213405 142.826277,5.49578965 L142.826277,5.49578965 L142.826277,8.75054145 L145.214863,8.75054145 L145.214863,10.2870034 C145.214863,11.170659 144.498519,11.8870034 143.614863,11.8870034 L143.614863,11.8870034 L142.826277,11.8870034 L142.826277,20.8702176 C142.826277,21.4225024 143.273993,21.8702176 143.826277,21.8702176 L143.826277,21.8702176 L145.214863,21.8702176 L145.214863,25.0081734 L140.760071,25.0081734 C139.655501,25.0081734 138.760071,24.1127429 138.760071,23.0081734 L138.760071,23.0081734 L138.760071,3.89578965 Z M93.0427813,16.7831632 C92.7175012,17.0417443 92.2804151,17.2595984 91.731523,17.4367256 C91.274113,17.5843316 90.7232403,17.7087599 90.0789051,17.8100106 L89.6810885,17.8679798 C88.9632575,17.9476755 88.4057819,18.1862471 88.0086616,18.5836944 C87.6115413,18.9811417 87.4186581,19.4935469 87.4300119,20.12091 C87.477573,20.7614935 87.7189913,21.2533496 88.1542668,21.5964785 C88.5895422,21.9396074 89.1958778,22.1160447 89.9732736,22.1257903 C90.8510388,21.927277 91.5394743,21.6154287 92.0385801,21.1902454 C92.4752977,20.8182101 92.7861679,20.3431196 92.9711908,19.764974 L93.0427813,19.5108878 L93.0427813,16.7831632 Z M129.859264,11.8870034 C128.13238,11.8870034 127.110389,12.99476 126.79329,15.2102733 L132.925237,15.2102733 C132.608139,12.99476 131.586147,11.8870034 129.859264,11.8870034 Z" id="Combined-Shape" fill="#000000"></path>
                <path d="M44.2672433,3.63806337 C46.7044816,3.54575531 49.1352426,4.45496678 50.3462799,5.34549983 C52.0118789,6.57029373 52.9216342,8.17840417 53.0755458,10.1698311 L53.0755458,10.1698311 L50.5013741,10.1698311 C50.1152289,10.1698311 49.7635911,9.94750298 49.5979831,9.59867342 C49.1988001,8.75771397 48.6814958,8.11089806 48.0460704,7.65822569 C47.2736124,7.10793239 46.2481333,6.78865353 44.9696331,6.7003891 C42.9810466,6.7003891 41.5655377,7.40942015 40.7231061,8.82748224 C39.4594589,10.9545754 39.1952337,12.8308956 39.1952337,14.5916344 C39.1952337,16.3523732 39.4088871,18.1490753 40.7231061,19.7719558 C41.5992522,20.8538761 42.9139523,21.3794813 44.6672067,21.3487715 C45.8689965,21.4337007 46.8603421,21.1770648 47.6412434,20.5788638 C48.4221447,19.9806627 49.07245,18.9797297 49.5921592,17.5760646 L49.5921592,17.5760646 L53.0755458,17.5760646 C52.60256,20.0919389 51.6928047,21.9376098 50.3462799,23.1130772 C48.999755,24.2885446 47.1067306,24.889599 44.6672067,24.9162403 C43.4556144,24.9162403 42.1409143,24.6014095 40.7231061,23.9717479 C39.7211032,23.5267492 38.0594414,22.3303088 37.0425533,20.5788638 C35.901136,18.612935 35.4589408,16.0388779 35.4589408,14.8274286 C35.4589408,12.5366996 35.6019892,9.33436144 37.8955074,6.41319709 C39.0772991,4.90799526 41.676401,3.73618904 44.2672433,3.63806337 Z M33.9393939,4.35721144 L33.9393939,24.2919633 L30.3030303,24.2919633 L30.3030303,5.35721144 C30.3030303,4.80492669 30.7507456,4.35721144 31.3030303,4.35721144 L33.9393939,4.35721144 Z" id="Combined-Shape" fill="#81C121"></path>
            </g>
        </g>
    </g>
</svg>