<?xml version="1.0" encoding="UTF-8"?>
<svg width="156px" height="28px" viewBox="0 0 156 28" version="1.1" xmlns="http://www.w3.org/2000/svg" xmlns:xlink="http://www.w3.org/1999/xlink">
    <title>logo/am</title>
    <g id="ing-..." stroke="none" stroke-width="1" fill="none" fill-rule="evenodd">
        <g id="交易-报价--Pricing" transform="translate(-868.000000, -4324.000000)" fill-rule="nonzero">
            <g id="Group" transform="translate(866.000000, 4313.000000)">
                <g id="text" transform="translate(2.424242, 10.894737)">
                    <path d="M0,12.9900126 C0,11.2375579 0.325818182,9.59201684 0.977454545,8.05571368 C1.62909091,6.52057263 2.52509091,5.18182737 3.66545455,4.04412632 C4.80581818,2.90526316 6.144,2.01044211 7.68349091,1.35850105 C9.22065455,0.707722105 10.8683636,0.382332632 12.6242909,0.382332632 C14.3802182,0.382332632 16.0267636,0.707722105 17.5650909,1.35850105 C19.1022545,2.01044211 20.4427636,2.90410105 21.5831273,4.04412632 C22.7223273,5.18182737 23.6183273,6.52057263 24.2711273,8.05571368 C24.9227636,9.59201684 25.2485818,11.2375579 25.2485818,12.9900126 C25.2485818,14.7436295 24.9227636,16.3891705 24.2711273,17.9243116 C23.6183273,19.4606147 22.7234909,20.79936 21.5831273,21.9370611 C20.4427636,23.0747621 19.1022545,23.9707453 17.5650909,24.6215242 C16.0267636,25.2734653 14.3802182,25.5976926 12.6242909,25.5976926 C10.8683636,25.5976926 9.22065455,25.2734653 7.68349091,24.6215242 C6.14516364,23.9707453 4.80581818,23.0759242 3.66545455,21.9370611 C2.52625455,20.79936 1.62909091,19.4606147 0.977454545,17.9243116 C0.325818182,16.3891705 0,14.7436295 0,12.9900126 Z M6.32552727,7.73148632 L6.32552727,9.81862737 L18.9218909,9.81862737 L18.9218909,7.73148632 L6.32552727,7.73148632 Z M18.9218909,18.2508632 L18.9218909,11.9336589 L6.32552727,11.9336589 L6.32552727,18.2508632 L8.41658182,18.2508632 L8.41658182,15.8650611 C8.41658182,15.5210779 8.45265455,15.2503074 8.5248,15.0515874 C8.59694545,14.8528674 8.69701818,14.6820379 8.82385455,14.5367747 C9.1136,14.1939537 9.50341818,14.0219621 9.99214545,14.0219621 C10.4808727,14.0219621 10.8695273,14.1939537 11.1592727,14.5367747 C11.2849455,14.6820379 11.3850182,14.8528674 11.4583273,15.0515874 C11.5304727,15.2503074 11.5665455,15.5210779 11.5665455,15.8650611 L11.5665455,18.2508632 L13.6843636,18.2508632 L13.6843636,15.8650611 C13.6843636,15.5210779 13.7192727,15.2503074 13.7925818,15.0515874 C13.8658909,14.8528674 13.9636364,14.6820379 14.0916364,14.5367747 C14.3813818,14.1939537 14.7700364,14.0219621 15.2587636,14.0219621 C15.7474909,14.0219621 16.1373091,14.1939537 16.4270545,14.5367747 C16.5527273,14.6820379 16.6516364,14.8528674 16.7249455,15.0515874 C16.7982545,15.2503074 16.8343273,15.5210779 16.8343273,15.8650611 L16.8343273,18.2508632 L18.9218909,18.2508632 Z" id="形状" fill="#FA5B35"></path>
                    <path d="M35.4280727,5.88722526 C35.0650182,5.88722526 34.7089455,5.93719579 34.3563636,6.03597474 C34.0037818,6.13591579 33.6907636,6.28582737 33.4196364,6.48454737 C33.1485091,6.68326737 32.9309091,6.92730947 32.768,7.21667368 C32.6050909,7.50603789 32.5236364,7.84885895 32.5236364,8.24746105 C32.5236364,8.82502737 32.704,9.30032842 33.0670545,9.67104 C33.4289455,10.0405895 33.8897455,10.3671411 34.4506182,10.6472084 C35.0114909,10.9272758 35.6270545,11.2038568 36.2973091,11.4734653 C36.9664,11.7442358 37.6087273,12.0521937 38.2242909,12.3961768 C38.9841455,12.8296421 39.6357818,13.4176674 40.1792,14.1590905 C40.7226182,14.9005137 40.9937455,15.8673853 40.9937455,17.0597053 C40.9937455,17.9092042 40.8296727,18.6773558 40.5050182,19.36416 C40.1792,20.0509642 39.7451636,20.6343411 39.2017455,21.1119663 C38.6583273,21.5919158 38.0346182,21.9614653 37.3294545,22.2241011 C36.6231273,22.4867368 35.8807273,22.6168926 35.1034182,22.6168926 C34.3249455,22.6168926 33.6058182,22.5367074 32.9448727,22.3728505 C32.2850909,22.2101558 31.6916364,22.0079495 31.168,21.7639074 C30.6420364,21.5198653 30.1893818,21.2537432 29.8100364,20.9643789 C29.4306909,20.6750147 29.1316364,20.4123789 28.9140364,20.1776337 L30.1358545,17.6024084 L30.2440727,17.6024084 C30.7688727,18.1090863 31.4158545,18.5599832 32.1850182,18.9574232 C32.9541818,19.3560253 33.856,19.5547453 34.8858182,19.5547453 C35.2116364,19.5547453 35.5421091,19.5047747 35.8772364,19.4048337 C36.2123636,19.3060547 36.5114182,19.1607916 36.7744,18.9713684 C37.0373818,18.7819453 37.2491636,18.5379032 37.4120727,18.2392421 C37.5761455,17.9405811 37.6564364,17.6024084 37.6564364,17.2224 C37.6564364,16.6448337 37.4760727,16.1706947 37.1130182,15.7988211 C36.7511273,15.4292716 36.2903273,15.0980716 35.7294545,14.8087074 C35.1685818,14.5193432 34.5530182,14.2439242 33.8839273,13.9812884 C33.2136727,13.7198147 32.5713455,13.4083705 31.9557818,13.0457937 C31.1959273,12.6123284 30.5442909,12.0243032 30.0008727,11.28288 C29.4574545,10.5414568 29.1874909,9.57458526 29.1874909,8.38226526 C29.1874909,7.53392842 29.3504,6.76461474 29.6762182,6.07781053 C30.0008727,5.39100632 30.4395636,4.80879158 30.9922909,4.32884211 C31.5450182,3.85121684 32.1780364,3.48050526 32.8936727,3.21786947 C33.6081455,2.95523368 34.3633455,2.82391579 35.1592727,2.82391579 C35.9016727,2.82391579 36.5812364,2.90526316 37.1956364,3.06795789 C37.8100364,3.23181474 38.3627636,3.43053474 38.8514909,3.66528 C39.3402182,3.90002526 39.7661091,4.15336421 40.128,4.42413474 C40.4910545,4.69490526 40.7808,4.93081263 40.9972364,5.12837053 L39.7754182,7.70475789 L39.6660364,7.70475789 C39.1412364,7.23526737 38.5349818,6.81342316 37.8484364,6.44387368 C37.1572364,6.07316211 36.352,5.88722526 35.4280727,5.88722526 Z M41.4824727,11.3642274 L44.6859636,11.3642274 L46.5861818,16.8679579 L46.6955636,16.8679579 L49.3835636,9.19457684 L51.5549091,9.19457684 L54.3790545,16.9481432 L54.4872727,16.9481432 L57.2020364,9.19457684 L60.2426182,9.19457684 L55.6008727,22.2078316 L53.4830545,22.2078316 L50.4971636,14.0196379 L50.3889455,14.0196379 L47.5101091,22.2078316 L45.3387636,22.2078316 L41.4824727,11.3642274 Z M61.5726545,3.77335579 L64.8029091,3.77335579 L64.8029091,6.89128421 L61.5726545,6.89128421 L61.5726545,3.77335579 Z M61.6261818,9.19573895 L64.7493818,9.19573895 L64.7493818,22.2089937 L61.6261818,22.2089937 L61.6261818,9.19573895 Z M76.6394182,18.4123958 C76.6394182,19.0457432 76.5207273,19.6186611 76.2856727,20.1334737 C76.0506182,20.6482863 75.7282909,21.0875621 75.3221818,21.4489768 C74.9149091,21.8115537 74.4296727,22.0962695 73.8699636,22.3031242 C73.3090909,22.5123032 72.6935273,22.6145684 72.0244364,22.6145684 C71.1016727,22.6145684 70.2149818,22.4472253 69.3643636,22.1125389 C68.5137455,21.7790147 67.7713455,21.3130105 67.1383273,20.7168505 L68.0075636,18.3845053 L68.1157818,18.3845053 C68.6045091,18.8191326 69.1572364,19.1840337 69.7716364,19.4826947 C70.3872,19.7813558 71.0562909,19.9301053 71.7812364,19.9301053 C72.3246545,19.9301053 72.7586909,19.8220295 73.0845091,19.6058779 C73.4103273,19.3874021 73.5732364,19.0724716 73.5732364,18.6564379 C73.5732364,18.2415663 73.3789091,17.92896 72.9890909,17.7209432 C72.6004364,17.5129263 72.1256727,17.3188547 71.5636364,17.1387284 C71.1109818,16.9934653 70.6408727,16.8226358 70.1521455,16.6239158 C69.6634182,16.4251958 69.2154182,16.1718568 68.8081455,15.8650611 C68.4008727,15.5571032 68.0657455,15.1724463 67.8039273,14.7122526 C67.5421091,14.2520589 67.4106182,13.6779789 67.4106182,12.9911747 C67.4106182,12.3775832 67.5281455,11.8069895 67.7643636,11.28288 C67.9982545,10.7587705 68.3240727,10.3160084 68.7418182,9.95459368 C69.1572364,9.59201684 69.6552727,9.30730105 70.2347636,9.10044632 C70.8130909,8.89242947 71.4565818,8.78784 72.1617455,8.78784 C72.9216,8.78784 73.6779636,8.91915789 74.4285091,9.18179368 C75.1790545,9.44442947 75.8714182,9.82792421 76.5044364,10.33344 L75.6363636,12.6925137 L75.5269818,12.6925137 C75.0568727,12.3299368 74.5448727,12.0370863 73.9933091,11.8104758 C73.4417455,11.5838653 72.9122909,11.4711411 72.4061091,11.4711411 C71.7905455,11.4711411 71.3146182,11.5803789 70.9806545,11.7965305 C70.6455273,12.0138442 70.4779636,12.3299368 70.4779636,12.7448084 C70.4779636,13.1608421 70.6722909,13.4734484 71.0609455,13.6814653 C71.4507636,13.8894821 71.9255273,14.0835537 72.4864,14.26368 C72.9390545,14.4089432 73.4103273,14.5797726 73.8990545,14.7784926 C74.3877818,14.9783747 74.8357818,15.2305516 75.2418909,15.5373474 C75.6503273,15.8453053 75.9842909,16.2334484 76.2461091,16.7029389 C76.5079273,17.1759158 76.6394182,17.7441853 76.6394182,18.4123958 Z M87.7975273,18.4123958 C87.7975273,19.0457432 87.6788364,19.6186611 87.4437818,20.1334737 C87.2087273,20.6482863 86.8864,21.0875621 86.4802909,21.4489768 C86.0730182,21.8115537 85.5877818,22.0962695 85.0280727,22.3031242 C84.4672,22.5111411 83.8504727,22.6145684 83.1813818,22.6145684 C82.2586182,22.6145684 81.3707636,22.4472253 80.5213091,22.1125389 C79.6706909,21.7790147 78.9282909,21.3130105 78.2952727,20.7168505 L79.1633455,18.3845053 L79.2727273,18.3845053 C79.7614545,18.8191326 80.3141818,19.1840337 80.9285818,19.4826947 C81.5441455,19.7813558 82.2132364,19.9301053 82.9381818,19.9301053 C83.4816,19.9301053 83.9156364,19.8220295 84.2414545,19.6058779 C84.5672727,19.3874021 84.7301818,19.0724716 84.7301818,18.6564379 C84.7301818,18.2415663 84.5358545,17.92896 84.1460364,17.7209432 C83.7573818,17.5129263 83.2826182,17.3188547 82.7205818,17.1387284 C82.2679273,16.9934653 81.7978182,16.8226358 81.3090909,16.6239158 C80.8203636,16.4251958 80.3723636,16.1718568 79.9650909,15.8650611 C79.5578182,15.5571032 79.2226909,15.1724463 78.9608727,14.7122526 C78.6990545,14.2520589 78.5675636,13.6779789 78.5675636,12.9911747 C78.5675636,12.3775832 78.6850909,11.8069895 78.9201455,11.28288 C79.1552,10.7587705 79.4810182,10.3160084 79.8987636,9.95459368 C80.3141818,9.59201684 80.8122182,9.30730105 81.3905455,9.10044632 C81.9700364,8.89242947 82.6135273,8.78784 83.3186909,8.78784 C84.0785455,8.78784 84.8337455,8.91915789 85.5854545,9.18179368 C86.336,9.44442947 87.0272,9.82792421 87.6613818,10.33344 L86.7933091,12.6925137 L86.6839273,12.6925137 C86.2138182,12.3299368 85.7018182,12.0370863 85.1502545,11.8104758 C84.5986909,11.5838653 84.0680727,11.4711411 83.5630545,11.4711411 C82.9474909,11.4711411 82.4715636,11.5803789 82.1364364,11.7965305 C81.8024727,12.0138442 81.6337455,12.3299368 81.6337455,12.7448084 C81.6337455,13.1608421 81.8280727,13.4734484 82.2178909,13.6814653 C82.6065455,13.8894821 83.0824727,14.0835537 83.6433455,14.26368 C84.096,14.4089432 84.5672727,14.5797726 85.056,14.7784926 C85.5447273,14.9783747 85.9927273,15.2305516 86.3988364,15.5373474 C86.8072727,15.8453053 87.1412364,16.2334484 87.4030545,16.7029389 C87.6660364,17.1759158 87.7975273,17.7441853 87.7975273,18.4123958 Z M102.159127,9.19573895 L102.159127,27.9021474 L99.0359273,27.9021474 L99.0359273,21.2595537 C98.5832727,21.6744253 98.0538182,22.0056253 97.4487273,22.2496674 C96.8424727,22.4937095 96.2210909,22.6145684 95.5880727,22.6145684 C94.6653091,22.6145684 93.8321455,22.4472253 93.0909091,22.1125389 C92.3485091,21.7790147 91.7108364,21.3095242 91.1767273,20.7029053 C90.6426182,20.0974484 90.2353455,19.3792674 89.9549091,18.5483621 C89.6744727,17.7174568 89.5348364,16.8133389 89.5348364,15.8371705 C89.5348364,14.9156211 89.6837818,14.0289347 89.9828364,13.1805979 C90.2818909,12.3310989 90.7112727,11.5803789 91.2721455,10.9296 C91.8318545,10.2776589 92.5079273,9.75936 93.2933818,9.37005474 C94.0811636,8.98191158 94.9538909,8.78667789 95.9138909,8.78667789 C96.5108364,8.78667789 97.0903273,8.89591579 97.6512,9.11206737 C98.2109091,9.32938105 98.7275636,9.61874526 99.1976727,9.97899789 L99.3070545,9.97899789 L99.3070545,9.19573895 L102.159127,9.19573895 Z M99.0359273,12.5844379 C98.7101091,12.27648 98.3074909,12.0417347 97.8280727,11.8802021 C97.3486545,11.7163453 96.8738909,11.63616 96.4026182,11.63616 C95.2797091,11.63616 94.3895273,12.0243032 93.7285818,12.8017516 C93.0676364,13.5792 92.7371636,14.5820968 92.7371636,15.8116042 C92.7371636,16.3543074 92.8128,16.86912 92.9675636,17.3572042 C93.1211636,17.8452884 93.3469091,18.2648084 93.6459636,18.6180884 C93.9450182,18.9702063 94.3057455,19.2502737 94.7328,19.4582905 C95.1575273,19.6663074 95.6509091,19.7708968 96.2117818,19.7708968 C96.7354182,19.7708968 97.2427636,19.6721179 97.7314909,19.4722358 C98.2202182,19.2735158 98.6554182,18.9655579 99.0347636,18.5506863 L99.0347636,12.5844379 L99.0359273,12.5844379 Z M107.913309,16.9760337 C107.913309,17.5547621 107.958691,17.9882274 108.049455,18.2775916 C108.139055,18.5669558 108.267055,18.8109979 108.4288,19.0097179 C108.627782,19.2630568 108.886109,19.4617768 109.202618,19.60704 C109.519127,19.7511411 109.857745,19.8243537 110.2208,19.8243537 C110.582691,19.8243537 110.922473,19.7523032 111.238982,19.60704 C111.554327,19.4617768 111.812655,19.2630568 112.0128,19.0097179 C112.175709,18.8109979 112.301382,18.5669558 112.392145,18.2775916 C112.482909,17.9882274 112.528291,17.5547621 112.528291,16.9760337 L112.528291,9.19573895 L115.650327,9.19573895 L115.650327,16.6506442 C115.650327,17.7174568 115.515345,18.5994947 115.243055,19.2944337 C114.970764,19.9893726 114.590255,20.5739116 114.102691,21.0434021 C113.613964,21.5314863 113.030982,21.9149811 112.351418,22.1950484 C111.673018,22.4751158 110.917818,22.6145684 110.084655,22.6145684 C109.325964,22.6145684 108.618473,22.4797642 107.968,22.2078316 C107.317527,21.9358989 106.755491,21.5663495 106.285382,21.0956968 C105.814109,20.6273684 105.447564,20.0393432 105.185745,19.3339453 C104.922764,18.6285474 104.792436,17.7337263 104.792436,16.64832 L104.792436,9.19573895 L107.914473,9.19573895 L107.914473,16.9760337 L107.913309,16.9760337 Z M124.5824,22.6145684 C123.587491,22.6145684 122.671709,22.4437389 121.840873,22.0997558 C121.007709,21.7569347 120.293236,21.2827958 119.696291,20.6761768 C119.098182,20.07072 118.632727,19.3571874 118.2976,18.5344168 C117.962473,17.7116463 117.794909,16.8133389 117.794909,15.8371705 C117.794909,14.8063832 117.962473,13.8581053 118.2976,12.9900126 C118.632727,12.1230821 119.098182,11.3770105 119.696291,10.75296 C120.293236,10.1300716 121.007709,9.64663579 121.840873,9.30265263 C122.672873,8.95983158 123.587491,8.78784 124.5824,8.78784 C125.577309,8.78784 126.491927,8.95983158 127.323927,9.30265263 C128.155927,9.64663579 128.871564,10.1207747 129.468509,10.7262316 C130.066618,11.3316884 130.532073,12.0463832 130.866036,12.8691537 C131.201164,13.6919242 131.368727,14.5902316 131.368727,15.5664 C131.368727,16.5971874 131.201164,17.5454653 130.866036,18.4123958 C130.532073,19.2804884 130.065455,20.02656 129.468509,20.6494484 C128.871564,21.2734989 128.155927,21.7569347 127.323927,22.0997558 C126.491927,22.4437389 125.578473,22.6145684 124.5824,22.6145684 Z M128.1664,15.7012042 C128.1664,15.1236379 128.075636,14.5855832 127.895273,14.0882021 C127.714909,13.5908211 127.465891,13.1620042 127.148218,12.8005895 C126.832873,12.4391747 126.455855,12.1544589 126.021818,11.9476042 C125.587782,11.7407495 125.108364,11.6349979 124.583564,11.6349979 C124.058764,11.6349979 123.579345,11.7395874 123.145309,11.9476042 C122.710109,12.1556211 122.335418,12.4403368 122.017745,12.8005895 C121.701236,13.1631663 121.452218,13.5919832 121.270691,14.0882021 C121.089164,14.5844211 120.999564,15.1236379 120.999564,15.7012042 C120.999564,16.2799326 121.090327,16.8179874 121.270691,17.3153684 C121.451055,17.8127495 121.700073,18.2415663 122.017745,18.6029811 C122.334255,18.9643958 122.710109,19.2491116 123.145309,19.4559663 C123.579345,19.6639832 124.058764,19.7685726 124.583564,19.7685726 C125.108364,19.7685726 125.587782,19.6639832 126.021818,19.4559663 C126.455855,19.2479495 126.831709,18.9632337 127.148218,18.6029811 C127.464727,18.2404042 127.713745,17.8115874 127.895273,17.3153684 C128.0768,16.8191495 128.1664,16.2799326 128.1664,15.7012042 Z M141.957818,19.6593347 L141.957818,22.0730274 C141.088582,22.4344421 140.156509,22.6145684 139.1616,22.6145684 C137.822255,22.6145684 136.7808,22.2450189 136.039564,21.5035958 C135.659055,21.1235874 135.373964,20.6355032 135.184291,20.0393432 C134.994618,19.4420211 134.8992,18.6483032 134.8992,17.6523789 L134.8992,11.9057684 L131.913309,11.9057684 L131.913309,9.19573895 L134.8992,9.19573895 L134.8992,4.85643789 L138.0224,4.85643789 L138.0224,9.19457684 L141.958982,9.19457684 L141.958982,11.9057684 L138.0224,11.9057684 L138.0224,18.0602779 C138.0224,18.4042611 138.052655,18.6738695 138.116655,18.8725895 C138.180655,19.0724716 138.266764,19.2351663 138.374982,19.3618358 C138.573964,19.5791495 138.818327,19.7232505 139.108073,19.7953011 C139.397818,19.8673516 139.714327,19.9033768 140.0576,19.9033768 C140.420655,19.9033768 140.776727,19.8731621 141.130473,19.8092463 C141.484218,19.7453305 141.722764,19.69536 141.8496,19.6593347 L141.957818,19.6593347 Z M154.717091,20.5820463 C154.101527,21.2328253 153.354473,21.7336926 152.477091,22.0858105 C151.598545,22.4390905 150.645527,22.6145684 149.613382,22.6145684 C148.653382,22.6145684 147.771345,22.4518737 146.966109,22.1264842 C146.162036,21.8022568 145.4592,21.3455495 144.862255,20.7575242 C144.264145,20.1694989 143.798691,19.4606147 143.464727,18.6285474 C143.1296,17.7976421 142.962036,16.8667958 142.962036,15.8371705 C142.962036,14.8970274 143.101673,14.0022063 143.382109,13.1527074 C143.662545,12.3032084 144.069818,11.5524884 144.603927,10.9017095 C145.138036,10.2497684 145.797818,9.73495579 146.5856,9.35610947 C147.373382,8.97726316 148.272873,8.78667789 149.2864,8.78667789 C150.154473,8.78667789 150.942255,8.95053474 151.647418,9.27476211 C152.353745,9.60015158 152.955345,10.0522105 153.453382,10.6309389 C153.951418,11.2096674 154.340073,11.8964716 154.620509,12.6913516 C154.900945,13.4862316 155.041745,14.3543242 155.041745,15.2933053 L155.041745,16.3240926 L146.217891,16.3240926 C146.236509,16.8307705 146.336582,17.3002611 146.516945,17.7337263 C146.697309,18.1671916 146.941673,18.5425516 147.250036,18.8598063 C147.5584,19.1747368 147.923782,19.4245895 148.349673,19.6058779 C148.7744,19.7860042 149.249164,19.8754863 149.775127,19.8754863 C150.444218,19.8754863 151.081891,19.7499789 151.689309,19.49664 C152.296727,19.2433011 152.878545,18.8830484 153.440582,18.4112337 L153.549964,18.4112337 L154.717091,20.5820463 Z M151.920873,13.8859958 C151.920873,13.5780379 151.856873,13.2805389 151.7312,12.9900126 C151.605527,12.7018105 151.432145,12.4391747 151.215709,12.2032674 C150.998109,11.9696842 150.731636,11.7837474 150.415127,11.6477811 C150.099782,11.5118147 149.741382,11.4444126 149.343418,11.4444126 C148.546327,11.4444126 147.894691,11.6791579 147.388509,12.1486484 C146.881164,12.6181389 146.546036,13.1968674 146.384291,13.8836716 L151.920873,13.8836716 L151.920873,13.8859958 Z" id="形状" fill="#000018"></path>
                </g>
            </g>
        </g>
    </g>
</svg>